<svg width="25" height="25" viewBox="0 0 25 25" fill="none" xmlns="http://www.w3.org/2000/svg">
<path d="M6.85173 22.8518H18.1482C19.3446 22.8518 20.3624 21.9786 20.5428 20.7982C20.8321 18.9196 20.8999 17.0161 20.7428 15.125H22.9285C23.0884 15.125 23.2454 15.082 23.383 15.0006C23.5206 14.9191 23.6338 14.8022 23.7108 14.6621C23.7878 14.522 23.8258 14.3637 23.8207 14.2039C23.8157 14.0441 23.7678 13.8886 23.6821 13.7536L23.3035 13.1589C21.0299 9.57786 18.1365 6.43048 14.7589 3.86428L13.5803 2.97143C13.2696 2.73535 12.8901 2.60754 12.4999 2.60754C12.1097 2.60754 11.7303 2.73535 11.4196 2.97143L10.241 3.86428C6.86327 6.43101 3.96984 9.57901 1.69637 13.1607L1.3178 13.7554C1.2321 13.8903 1.18421 14.0459 1.17916 14.2057C1.1741 14.3655 1.21206 14.5238 1.28906 14.6639C1.36606 14.804 1.47929 14.9209 1.6169 15.0023C1.75452 15.0838 1.91147 15.1267 2.07137 15.1268H4.25709C4.10189 17.0186 4.16901 18.922 4.45709 20.7982C4.63923 21.9804 5.65709 22.8518 6.85173 22.8518Z" stroke="#1A1953" stroke-linecap="round" stroke-linejoin="round"/>
<path d="M12.5 14.4446C14.1446 14.4446 15.4786 15.7767 15.4786 17.4214V22.8499H9.52319V17.4214C9.52319 15.7785 10.8553 14.4446 12.5 14.4446Z" stroke="#1A1953" stroke-linecap="round" stroke-linejoin="round"/>
</svg>
