<svg width="25" height="25" viewBox="0 0 25 25" fill="none" xmlns="http://www.w3.org/2000/svg">
<path fill-rule="evenodd" clip-rule="evenodd" d="M10.8804 2.25889C11.3463 1.90521 11.9151 1.71375 12.5 1.71375C13.085 1.71375 13.6538 1.90521 14.1197 2.25889L15.2982 3.15353C18.7605 5.78376 21.7265 9.00975 24.0572 12.6803L24.4357 13.275C24.6072 13.5449 24.7029 13.856 24.713 14.1756C24.7231 14.4953 24.6472 14.8118 24.4932 15.0921C24.3392 15.3723 24.1128 15.6061 23.8375 15.769C23.5623 15.9318 23.2484 16.0178 22.9286 16.0178H21.6947C21.7661 17.6607 21.6768 19.3053 21.4268 20.9321C21.3064 21.7151 20.9096 22.4291 20.3081 22.9447C19.7067 23.4604 18.9405 23.7435 18.1482 23.7428H14.7322V17.8571C14.7322 17.2651 14.497 16.6974 14.0784 16.2787C13.6598 15.8601 13.092 15.625 12.5 15.625C11.908 15.625 11.3403 15.8601 10.9217 16.2787C10.5031 16.6974 10.2679 17.2651 10.2679 17.8571V23.7428H6.85182C6.06031 23.7416 5.29527 23.4578 4.6945 22.9424C4.09373 22.4271 3.69673 21.7142 3.57503 20.9321C3.32503 19.3053 3.23574 17.6589 3.30717 16.0178H2.07146C1.75166 16.0178 1.43774 15.9318 1.16251 15.769C0.887284 15.6061 0.660837 15.3723 0.506832 15.0921C0.352826 14.8118 0.276914 14.4953 0.287026 14.1756C0.297138 13.856 0.392902 13.5449 0.564315 13.275L0.941101 12.6785C3.2725 9.00846 6.23909 5.78307 9.70182 3.15353L10.8804 2.25889Z" fill="#1A1953"/>
</svg>
