<svg width="25" height="25" viewBox="0 0 25 25" fill="none" xmlns="http://www.w3.org/2000/svg">
<g clip-path="url(#clip0_738_546)">
<path fill-rule="evenodd" clip-rule="evenodd" d="M6.52149 1.10001C6.95006 1.64644 7.27149 2.28573 7.44828 2.99644C8.15899 3.17501 8.79827 3.49465 9.3447 3.92501C10.2554 4.6393 10.2554 6.00537 9.3447 6.72144C8.79827 7.15001 8.15899 7.46965 7.44828 7.64823C7.2697 8.35894 6.95006 8.99823 6.52149 9.54465C6.35549 9.75728 6.14321 9.92928 5.90077 10.0476C5.65834 10.1659 5.39214 10.2274 5.12238 10.2274C4.85263 10.2274 4.58642 10.1659 4.34399 10.0476C4.10156 9.92928 3.88928 9.75728 3.72328 9.54465C3.28292 8.98566 2.96695 8.33912 2.79649 7.64823C2.10545 7.47723 1.45889 7.16065 0.900061 6.71966C0.687761 6.55363 0.516056 6.34144 0.397967 6.09918C0.279878 5.85692 0.218506 5.59095 0.218506 5.32144C0.218506 5.05193 0.279878 4.78596 0.397967 4.5437C0.516056 4.30144 0.687761 4.08925 0.900061 3.92323C1.45905 3.48287 2.1056 3.1669 2.79649 2.99644C2.97506 2.28573 3.2947 1.64644 3.72506 1.10001C3.89109 0.887713 4.10327 0.716007 4.34554 0.597918C4.5878 0.479829 4.85377 0.418457 5.12328 0.418457C5.39278 0.418457 5.65876 0.479829 5.90102 0.597918C6.14328 0.716007 6.35546 0.887713 6.52149 1.10001ZM18.959 3.46608C18.7352 3.17926 18.449 2.94724 18.1221 2.78765C17.7952 2.62807 17.4362 2.54512 17.0724 2.54512C16.7086 2.54512 16.3496 2.62807 16.0227 2.78765C15.6958 2.94724 15.4095 3.17926 15.1858 3.46608C14.4152 4.44924 13.8867 5.59987 13.6429 6.82501C12.4184 7.06903 11.2684 7.59754 10.2858 8.36787C9.99896 8.59164 9.76693 8.87787 9.60735 9.20478C9.44776 9.53169 9.36481 9.89069 9.36481 10.2545C9.36481 10.6183 9.44776 10.9773 9.60735 11.3042C9.76693 11.6311 9.99896 11.9173 10.2858 12.1411C11.2376 12.8911 12.3697 13.4268 13.6429 13.6839C13.8863 14.9087 14.4149 16.0588 15.1858 17.0411C16.1518 18.2732 17.9929 18.2732 18.959 17.0411C19.7299 16.0588 20.2585 14.9087 20.5018 13.6839C21.7264 13.4399 22.8764 12.9114 23.859 12.1411C24.1458 11.9173 24.3778 11.6311 24.5374 11.3042C24.697 10.9773 24.78 10.6183 24.78 10.2545C24.78 9.89069 24.697 9.53169 24.5374 9.20478C24.3778 8.87787 24.1458 8.59164 23.859 8.36787C22.8764 7.59754 21.7264 7.06903 20.5018 6.82501C20.2578 5.6005 19.7293 4.45051 18.959 3.46787M8.31792 12.525C8.12053 12.272 7.86805 12.0673 7.57965 11.9265C7.29126 11.7857 6.97456 11.7125 6.65363 11.7125C6.33271 11.7125 6.016 11.7857 5.72761 11.9265C5.43922 12.0673 5.18673 12.272 4.98935 12.525C4.38578 13.2929 3.94649 14.2036 3.72328 15.2179C2.74185 15.4294 1.82152 15.8617 1.0322 16.4822C0.778825 16.6795 0.573827 16.9321 0.432822 17.2207C0.291816 17.5092 0.218523 17.8262 0.218523 18.1473C0.218523 18.4685 0.291816 18.7854 0.432822 19.074C0.573827 19.3626 0.778825 19.6152 1.0322 19.8125C1.80006 20.4161 2.7072 20.8536 3.72506 21.0768C3.94649 22.0929 4.38578 23.0018 4.98935 23.7697C5.18673 24.0227 5.43922 24.2274 5.72761 24.3682C6.016 24.509 6.33271 24.5822 6.65363 24.5822C6.97456 24.5822 7.29126 24.509 7.57965 24.3682C7.86805 24.2274 8.12053 24.0227 8.31792 23.7697C8.92149 23.0018 9.36078 22.0929 9.5822 21.0768C10.5643 20.8656 11.4852 20.4332 12.2751 19.8125C12.5284 19.6152 12.7334 19.3626 12.8744 19.074C13.0154 18.7854 13.0887 18.4685 13.0887 18.1473C13.0887 17.8262 13.0154 17.5092 12.8744 17.2207C12.7334 16.9321 12.5284 16.6795 12.2751 16.4822C11.4852 15.8615 10.5643 15.4291 9.5822 15.2179C9.37096 14.2358 8.93857 13.3149 8.31792 12.525Z" fill="#1A1953"/>
</g>
<defs>
<clipPath id="clip0_738_546">
<rect width="25" height="25" fill="white"/>
</clipPath>
</defs>
</svg>
