<svg width="25" height="25" viewBox="0 0 25 25" fill="none" xmlns="http://www.w3.org/2000/svg">
<g clip-path="url(#clip0_738_426)">
<path d="M14.4214 7.60361C14.5705 6.29614 15.0778 5.05526 15.8875 4.01789C16.0277 3.83729 16.2074 3.69114 16.4127 3.59059C16.6181 3.49005 16.8437 3.43778 17.0723 3.43778C17.301 3.43778 17.5266 3.49005 17.7319 3.59059C17.9373 3.69114 18.1169 3.83729 18.2571 4.01789C19.0339 5.00718 19.5571 6.21968 19.7232 7.60361C21.0309 7.75319 22.2718 8.26116 23.3089 9.07146C23.4892 9.21171 23.6351 9.39126 23.7354 9.59644C23.8357 9.80162 23.8879 10.027 23.8879 10.2554C23.8879 10.4838 23.8357 10.7092 23.7354 10.9143C23.6351 11.1195 23.4892 11.2991 23.3089 11.4393C22.2716 12.249 21.0307 12.7563 19.7232 12.9054C19.5742 14.2129 19.0668 15.4537 18.2571 16.4911C18.1169 16.6717 17.9373 16.8179 17.7319 16.9184C17.5266 17.0189 17.301 17.0712 17.0723 17.0712C16.8437 17.0712 16.6181 17.0189 16.4127 16.9184C16.2074 16.8179 16.0277 16.6717 15.8875 16.4911C15.0778 15.4537 14.5705 14.2129 14.4214 12.9054C13.114 12.7563 11.8731 12.249 10.8357 11.4393C10.6554 11.2991 10.5096 11.1195 10.4092 10.9143C10.3089 10.7092 10.2567 10.4838 10.2567 10.2554C10.2567 10.027 10.3089 9.80162 10.4092 9.59644C10.5096 9.39126 10.6554 9.21171 10.8357 9.07146C11.8729 8.26116 13.1138 7.75319 14.4214 7.60361ZM4.49821 15.9929C4.61933 14.9295 5.03216 13.9203 5.69107 13.0768C5.8049 12.93 5.95081 12.8112 6.11763 12.7294C6.28446 12.6476 6.46778 12.6051 6.65357 12.6051C6.83935 12.6051 7.02267 12.6476 7.1895 12.7294C7.35633 12.8112 7.50224 12.93 7.61607 13.0768C8.24821 13.8804 8.67321 14.8661 8.80892 15.9929C9.93392 16.1268 10.9196 16.5536 11.7232 17.1857C11.87 17.2996 11.9889 17.4455 12.0706 17.6123C12.1524 17.7791 12.1949 17.9625 12.1949 18.1482C12.1949 18.334 12.1524 18.5174 12.0706 18.6842C11.9889 18.851 11.87 18.9969 11.7232 19.1107C10.8803 19.7693 9.87172 20.1822 8.80892 20.3036C8.68748 21.3664 8.27467 22.375 7.61607 23.2179C7.50224 23.3647 7.35633 23.4836 7.1895 23.5653C7.02267 23.6471 6.83935 23.6896 6.65357 23.6896C6.46778 23.6896 6.28446 23.6471 6.11763 23.5653C5.95081 23.4836 5.8049 23.3647 5.69107 23.2179C5.03247 22.375 4.61965 21.3664 4.49821 20.3036C3.43541 20.1822 2.42685 19.7693 1.58392 19.1107C1.43676 18.9969 1.31763 18.8509 1.23567 18.6839C1.1537 18.5169 1.11108 18.3334 1.11108 18.1474C1.11108 17.9613 1.1537 17.7778 1.23567 17.6108C1.31763 17.4438 1.43676 17.2978 1.58392 17.184C2.42705 16.526 3.43559 16.1138 4.49821 15.9929ZM3.5625 3.76254C3.64968 2.99284 3.9482 2.2623 4.425 1.65182C4.78214 1.19646 5.46071 1.19646 5.81785 1.65182C6.27678 2.23396 6.58571 2.94825 6.68214 3.76254C7.45183 3.84972 8.18237 4.14824 8.79285 4.62503C9.24821 4.98218 9.24821 5.66075 8.79285 6.01789C8.18257 6.49533 7.45201 6.79447 6.68214 6.88218C6.59496 7.65187 6.29644 8.38241 5.81964 8.99289C5.73717 9.09897 5.63155 9.18481 5.51086 9.24385C5.39016 9.3029 5.25757 9.33359 5.12321 9.33359C4.98885 9.33359 4.85626 9.3029 4.73556 9.24385C4.61487 9.18481 4.50925 9.09897 4.42678 8.99289C3.94934 8.38261 3.6502 7.65205 3.5625 6.88218C2.79281 6.795 2.06226 6.49647 1.45178 6.01968C1.3457 5.93721 1.25987 5.83159 1.20082 5.7109C1.14178 5.5902 1.11108 5.45761 1.11108 5.32325C1.11108 5.18888 1.14178 5.0563 1.20082 4.9356C1.25987 4.8149 1.3457 4.70929 1.45178 4.62682C2.06207 4.14938 2.79262 3.85024 3.5625 3.76254Z" stroke="#1A1953" stroke-linecap="round" stroke-linejoin="round"/>
</g>
<defs>
<clipPath id="clip0_738_426">
<rect width="25" height="25" fill="white"/>
</clipPath>
</defs>
</svg>
