<svg width="25" height="25" viewBox="0 0 25 25" fill="none" xmlns="http://www.w3.org/2000/svg">
<path fill-rule="evenodd" clip-rule="evenodd" d="M9.81075 1.10352C7.71999 0.987469 5.62388 1.00775 3.53575 1.16423C2.23218 1.2553 1.21433 2.2803 1.06968 3.54637C0.46254 8.83387 0.257182 14.1696 0.892897 19.5178C1.16075 21.7553 2.98575 23.3392 5.10361 23.5696C10.1036 24.1142 15.0286 24.0999 20.0233 23.5553C21.0597 23.4414 22.0272 22.9806 22.7689 22.2477C23.5105 21.5148 23.9828 20.5528 24.109 19.5178C24.5036 16.2124 24.609 12.8285 24.3643 8.69637C24.3038 7.66349 23.8726 6.68713 23.1498 5.94671C22.4271 5.20629 21.4615 4.75154 20.4304 4.66602C18.3054 4.49102 16.7411 4.45887 14.4268 4.41245L13.3554 4.39102C13.1769 4.38694 13.0038 4.32946 12.8583 4.22601C12.7129 4.12256 12.6018 3.97789 12.5393 3.81066L12.1822 2.84459C12.0019 2.35335 11.6808 1.92617 11.259 1.61649C10.8372 1.30681 10.3334 1.12838 9.81075 1.10352ZM17.0768 14.3999C18.684 14.3999 19.5875 13.4964 19.5875 11.891C19.5875 10.2839 18.684 9.3803 17.0768 9.3803C15.4697 9.3803 14.5661 10.2839 14.5661 11.891C14.5661 13.4982 15.4697 14.3999 17.0768 14.3999ZM9.67683 13.6892C12.3375 15.7428 14.6393 18.6482 16.3304 21.6232C12.6679 21.8374 9.02682 21.7482 5.34647 21.3482C4.15361 21.2196 3.2429 20.3535 3.11075 19.2517C3.01196 18.4198 2.93336 17.5857 2.87504 16.7499C3.78341 15.6363 4.82038 14.6341 5.96432 13.7642C7.05718 12.9124 8.5804 12.8446 9.67683 13.6892Z" fill="#1A1953"/>
</svg>
