<svg width="25" height="25" viewBox="0 0 25 25" fill="none" xmlns="http://www.w3.org/2000/svg">
<path d="M11.3463 3.1518C11.2265 2.82517 11.013 2.54115 10.7325 2.33531C10.452 2.12948 10.1171 2.01098 9.76953 1.99465C7.71321 1.88307 5.65184 1.90335 3.59811 2.05537C3.1813 2.08792 2.78898 2.26511 2.48899 2.5563C2.189 2.84749 2.0002 3.23436 1.95525 3.65001C1.35346 8.89287 1.15346 14.1554 1.78025 19.4107C1.99453 21.1929 3.45525 22.4893 5.20168 22.6786C10.0963 23.213 15.0348 23.2088 19.9285 22.6661C20.764 22.5738 21.5439 22.2021 22.1419 21.6113C22.7398 21.0205 23.1208 20.2451 23.2231 19.4107C23.6124 16.1607 23.7142 12.8322 23.4731 8.75001C23.426 7.93118 23.0848 7.15689 22.5123 6.5696C21.9397 5.98231 21.1744 5.62151 20.357 5.55358C17.957 5.35715 16.2874 5.34644 13.3392 5.28394C12.9817 5.276 12.6349 5.16095 12.3436 4.95369C12.0523 4.74643 11.8299 4.45651 11.7052 4.12144L11.3481 3.15358L11.3463 3.1518Z" stroke="#1A1953" stroke-linejoin="round"/>
<path d="M1.68213 18.3482C2.88241 16.6492 4.34042 15.1478 6.00356 13.8982C7.0982 13.0518 8.62141 12.9821 9.71606 13.8304C12.7125 16.15 15.275 19.5768 17.0036 22.9286M17.1321 14.3161C18.6143 14.3161 19.4464 13.4821 19.4464 12.0018C19.4464 10.5196 18.6143 9.6875 17.1321 9.6875C15.65 9.6875 14.8178 10.5196 14.8178 12.0018C14.8178 13.4839 15.65 14.3161 17.1321 14.3161Z" stroke="#1A1953" stroke-linecap="round" stroke-linejoin="round"/>
</svg>
