<svg width="53" height="53" viewBox="0 0 53 53" fill="none" xmlns="http://www.w3.org/2000/svg">
<path d="M30.917 48.5834H22.0837C13.756 48.5834 9.59112 48.5834 7.00516 45.9952C4.4192 43.407 4.41699 39.2443 4.41699 30.9167V26.5C4.41699 18.1724 4.41699 14.0075 7.00516 11.4215C9.59333 8.83558 13.756 8.83337 22.0837 8.83337H30.917C39.2446 8.83337 43.4095 8.83337 45.9955 11.4215C48.5815 14.0097 48.5837 18.1724 48.5837 26.5V30.9167C48.5837 39.2443 48.5837 43.4092 45.9955 45.9952C44.5535 47.4395 42.6212 48.0777 39.7503 48.3581M15.4587 8.83337V5.52087M37.542 8.83337V5.52087M47.4795 19.875H23.7399M4.41699 19.875H12.9743" stroke="#B8B8CA" stroke-width="1.5" stroke-linecap="round"/>
<path d="M39.75 37.5417C39.75 38.1274 39.5173 38.6891 39.1032 39.1032C38.6891 39.5173 38.1274 39.75 37.5417 39.75C36.956 39.75 36.3943 39.5173 35.9801 39.1032C35.566 38.6891 35.3333 38.1274 35.3333 37.5417C35.3333 36.956 35.566 36.3943 35.9801 35.9801C36.3943 35.566 36.956 35.3333 37.5417 35.3333C38.1274 35.3333 38.6891 35.566 39.1032 35.9801C39.5173 36.3943 39.75 36.956 39.75 37.5417ZM39.75 28.7083C39.75 29.294 39.5173 29.8557 39.1032 30.2699C38.6891 30.684 38.1274 30.9167 37.5417 30.9167C36.956 30.9167 36.3943 30.684 35.9801 30.2699C35.566 29.8557 35.3333 29.294 35.3333 28.7083C35.3333 28.1226 35.566 27.5609 35.9801 27.1468C36.3943 26.7327 36.956 26.5 37.5417 26.5C38.1274 26.5 38.6891 26.7327 39.1032 27.1468C39.5173 27.5609 39.75 28.1226 39.75 28.7083ZM28.7083 37.5417C28.7083 38.1274 28.4757 38.6891 28.0615 39.1032C27.6474 39.5173 27.0857 39.75 26.5 39.75C25.9143 39.75 25.3526 39.5173 24.9385 39.1032C24.5243 38.6891 24.2917 38.1274 24.2917 37.5417C24.2917 36.956 24.5243 36.3943 24.9385 35.9801C25.3526 35.566 25.9143 35.3333 26.5 35.3333C27.0857 35.3333 27.6474 35.566 28.0615 35.9801C28.4757 36.3943 28.7083 36.956 28.7083 37.5417ZM28.7083 28.7083C28.7083 29.294 28.4757 29.8557 28.0615 30.2699C27.6474 30.684 27.0857 30.9167 26.5 30.9167C25.9143 30.9167 25.3526 30.684 24.9385 30.2699C24.5243 29.8557 24.2917 29.294 24.2917 28.7083C24.2917 28.1226 24.5243 27.5609 24.9385 27.1468C25.3526 26.7327 25.9143 26.5 26.5 26.5C27.0857 26.5 27.6474 26.7327 28.0615 27.1468C28.4757 27.5609 28.7083 28.1226 28.7083 28.7083ZM17.6667 37.5417C17.6667 38.1274 17.434 38.6891 17.0199 39.1032C16.6057 39.5173 16.044 39.75 15.4583 39.75C14.8726 39.75 14.3109 39.5173 13.8968 39.1032C13.4827 38.6891 13.25 38.1274 13.25 37.5417C13.25 36.956 13.4827 36.3943 13.8968 35.9801C14.3109 35.566 14.8726 35.3333 15.4583 35.3333C16.044 35.3333 16.6057 35.566 17.0199 35.9801C17.434 36.3943 17.6667 36.956 17.6667 37.5417ZM17.6667 28.7083C17.6667 29.294 17.434 29.8557 17.0199 30.2699C16.6057 30.684 16.044 30.9167 15.4583 30.9167C14.8726 30.9167 14.3109 30.684 13.8968 30.2699C13.4827 29.8557 13.25 29.294 13.25 28.7083C13.25 28.1226 13.4827 27.5609 13.8968 27.1468C14.3109 26.7327 14.8726 26.5 15.4583 26.5C16.044 26.5 16.6057 26.7327 17.0199 27.1468C17.434 27.5609 17.6667 28.1226 17.6667 28.7083Z" fill="#B8B8CA"/>
</svg>
