<svg width="25" height="25" viewBox="0 0 25 25" fill="none" xmlns="http://www.w3.org/2000/svg">
<g clip-path="url(#clip0_738_436)">
<path d="M19.1159 21.4911C18.729 20.0317 17.8704 18.7412 16.6738 17.8204C15.4772 16.8997 14.0097 16.4005 12.4999 16.4005C10.99 16.4005 9.52256 16.8997 8.32594 17.8204C7.12932 18.7412 6.27071 20.0317 5.88379 21.4911" stroke="#1A1953" stroke-linecap="round" stroke-linejoin="round"/>
<path d="M12.5 24.1071C19.9285 24.1071 24.1071 19.9285 24.1071 12.5C24.1071 5.07139 19.9285 0.892822 12.5 0.892822C5.07139 0.892822 0.892822 5.07139 0.892822 12.5C0.892822 19.9285 5.07139 24.1071 12.5 24.1071Z" stroke="#1A1953" stroke-linecap="round" stroke-linejoin="round"/>
<path d="M12.4981 13.5356C14.9981 13.5356 16.4053 12.1303 16.4053 9.63029C16.4053 7.13029 14.9981 5.72314 12.4981 5.72314C9.99813 5.72314 8.59277 7.13029 8.59277 9.63029C8.59277 12.1303 9.99813 13.5356 12.4981 13.5356Z" stroke="#1A1953" stroke-linecap="round" stroke-linejoin="round"/>
</g>
<defs>
<clipPath id="clip0_738_436">
<rect width="25" height="25" fill="white"/>
</clipPath>
</defs>
</svg>
