<svg width="25" height="25" viewBox="0 0 25 25" fill="none" xmlns="http://www.w3.org/2000/svg">
<g clip-path="url(#clip0_738_305)">
<path fill-rule="evenodd" clip-rule="evenodd" d="M12.5 25C20.5 25 25 20.5 25 12.5C25 4.5 20.5 0 12.5 0C4.5 0 0 4.5 0 12.5C0 20.5 4.5 25 12.5 25ZM18.9946 20.5875C18.3654 19.4125 17.4289 18.4306 16.285 17.7465C15.1411 17.0624 13.8328 16.702 12.5 16.7036C11.1679 16.7042 9.86078 17.0656 8.71758 17.7495C7.57437 18.4333 6.63773 19.4141 6.00714 20.5875C7.49286 21.6554 9.60714 22.3214 12.5 22.3214C15.3929 22.3214 17.5071 21.6554 18.9946 20.5875ZM16.7054 9.40893C16.7054 12.1 15.1911 13.6161 12.4982 13.6161C9.80714 13.6161 8.29286 12.1 8.29286 9.40893C8.29286 6.71607 9.80714 5.20179 12.4982 5.20179C15.1893 5.20179 16.7054 6.71607 16.7054 9.40893Z" fill="#1A1953"/>
</g>
<defs>
<clipPath id="clip0_738_305">
<rect width="25" height="25" fill="white"/>
</clipPath>
</defs>
</svg>
