<svg width="16" height="16" viewBox="0 0 16 16" fill="none" xmlns="http://www.w3.org/2000/svg">
<path d="M8 1.75C6.76387 1.75 5.5555 2.11656 4.52769 2.80331C3.49988 3.49007 2.6988 4.46619 2.22576 5.60823C1.75271 6.75027 1.62894 8.00693 1.87009 9.21931C2.11125 10.4317 2.70651 11.5453 3.58059 12.4194C4.45466 13.2935 5.56831 13.8888 6.78069 14.1299C7.99307 14.3711 9.24974 14.2473 10.3918 13.7742C11.5338 13.3012 12.5099 12.5001 13.1967 11.4723C13.8834 10.4445 14.25 9.23613 14.25 8C14.2482 6.34296 13.5891 4.7543 12.4174 3.58259C11.2457 2.41088 9.65705 1.75182 8 1.75ZM8 13.75C6.86276 13.75 5.75106 13.4128 4.80547 12.781C3.85989 12.1491 3.1229 11.2511 2.6877 10.2004C2.25249 9.14975 2.13862 7.99362 2.36049 6.87823C2.58235 5.76284 3.12999 4.73829 3.93414 3.93414C4.73829 3.12998 5.76284 2.58235 6.87823 2.36048C7.99362 2.13862 9.14976 2.25249 10.2004 2.68769C11.2511 3.1229 12.1491 3.85989 12.781 4.80547C13.4128 5.75105 13.75 6.86276 13.75 8C13.7483 9.52449 13.142 10.9861 12.064 12.064C10.9861 13.142 9.52449 13.7483 8 13.75ZM7.75 8.5V5C7.75 4.9337 7.77634 4.87011 7.82323 4.82322C7.87011 4.77634 7.9337 4.75 8 4.75C8.06631 4.75 8.1299 4.77634 8.17678 4.82322C8.22366 4.87011 8.25 4.9337 8.25 5V8.5C8.25 8.5663 8.22366 8.62989 8.17678 8.67678C8.1299 8.72366 8.06631 8.75 8 8.75C7.9337 8.75 7.87011 8.72366 7.82323 8.67678C7.77634 8.62989 7.75 8.5663 7.75 8.5ZM8.5 10.75C8.5 10.8489 8.47068 10.9456 8.41574 11.0278C8.3608 11.11 8.28271 11.1741 8.19134 11.2119C8.09998 11.2498 7.99945 11.2597 7.90246 11.2404C7.80547 11.2211 7.71638 11.1735 7.64645 11.1036C7.57652 11.0336 7.5289 10.9445 7.50961 10.8475C7.49032 10.7506 7.50022 10.65 7.53806 10.5587C7.57591 10.4673 7.63999 10.3892 7.72222 10.3343C7.80444 10.2793 7.90111 10.25 8 10.25C8.13261 10.25 8.25979 10.3027 8.35356 10.3964C8.44732 10.4902 8.5 10.6174 8.5 10.75Z" fill="#FF0000"/>
</svg>
